<svg width="300" height="168" viewBox="0 0 300 168" fill="none" xmlns="http://www.w3.org/2000/svg">
<path d="M21.531 21.2974H0V0H67.2417V21.2974H45.8381V80.7119H21.531V21.2974ZM53.3225 80.7129L82.9076 0H113.464L143.061 80.7129H115.513L112.621 71.2741H83.7503L80.8594 80.7129H53.3225ZM90.2532 49.9748H106.128L98.1896 23.9537L90.2532 49.9748ZM202.193 59.4174H171.766V0H147.459V80.7119H202.186L202.193 59.4174ZM0 107.068H21.531V166.474H45.8381V107.068H67.2417V85.766H0V107.068ZM72.8397 166.474H133.71V145.177H97.1391V136.347H132.867V115.046H97.1391V107.068H133.71V85.766H72.8397V166.474ZM275.702 85.766V114.323H246.948V85.766H222.645V166.474H246.948V135.625H275.702V166.474H300V85.766H275.702ZM181.955 105.981C189.169 105.981 195.43 111.42 197.476 117.705L218.412 107.912C213.584 96.7848 203.006 84.4388 181.952 84.4388C156.816 84.4388 137.808 101.25 137.808 126.189C137.808 150.99 156.815 167.932 181.952 167.932C203.005 167.932 213.723 155.101 218.409 144.332L197.473 134.661C195.427 140.949 189.166 146.398 181.952 146.398C170.29 146.398 162.472 137.445 162.472 126.193C162.472 114.94 170.29 105.981 181.952 105.981H181.955Z" fill="#E3097E"/>
</svg>
